<svg xmlns="http://www.w3.org/2000/svg" viewBox="0 0 24 24" fill="none">
  <path d="M12 15.5A3.5 3.5 0 1 0 12 8.5a3.5 3.5 0 0 0 0 7Z" stroke="currentColor" stroke-width="2"/>
  <path d="M19.4 15a7.8 7.8 0 0 0 .1-1 7.8 7.8 0 0 0-.1-1l2-1.5-2-3.4-2.4 1a7.6 7.6 0 0 0-1.7-1l-.4-2.6h-4l-.4 2.6a7.6 7.6 0 0 0-1.7 1l-2.4-1-2 3.4 2 1.5a7.8 7.8 0 0 0-.1 1 7.8 7.8 0 0 0 .1 1l-2 1.5 2 3.4 2.4-1c.5.4 1.1.7 1.7 1l.4 2.6h4l.4-2.6c.6-.3 1.2-.6 1.7-1l2.4 1 2-3.4-2-1.5Z" stroke="currentColor" stroke-width="2" stroke-linejoin="round"/>
</svg>