<?xml version="1.0" encoding="UTF-8"?>
<svg width="1080" height="1920" viewBox="0 0 1080 1920" xmlns="http://www.w3.org/2000/svg">
  <defs>
    <linearGradient id="bg4" x1="0%" y1="0%" x2="0%" y2="100%">
      <stop offset="0%" style="stop-color:#003F87"/>
      <stop offset="100%" style="stop-color:#001a3a"/>
    </linearGradient>
    <filter id="shadow4" x="-20%" y="-20%" width="140%" height="140%">
      <feDropShadow dx="0" dy="20" stdDeviation="40" flood-color="#000" flood-opacity="0.5"/>
    </filter>
  </defs>

  <rect width="1080" height="1920" fill="url(#bg4)"/>

  <!-- Headline -->
  <text x="540" y="140" font-family="SF Pro Display, Roboto, Arial" font-size="56" font-weight="bold" fill="#fff" text-anchor="middle">
    Find Merchants Near You
  </text>
  <text x="540" y="200" font-family="SF Pro, Roboto, Arial" font-size="28" fill="#fff" fill-opacity="0.8" text-anchor="middle">
    Discover savings in your neighborhood
  </text>

  <!-- Phone Frame -->
  <g transform="translate(90, 280)" filter="url(#shadow4)">
    <rect width="900" height="1500" rx="60" fill="#1a1a1a"/>
    <rect x="12" y="12" width="876" height="1476" rx="52" fill="#000"/>

    <!-- Screen -->
    <rect x="16" y="16" width="868" height="1468" rx="50" fill="#e8f0e8"/>
    <rect x="320" y="24" width="260" height="32" rx="16" fill="#1a1a1a"/>

    <!-- Map Background -->
    <rect x="16" y="60" width="868" height="1100" fill="#e8f0e8"/>

    <!-- Map Grid Lines (simplified map) -->
    <g stroke="#ccc" stroke-width="1" opacity="0.5">
      <line x1="16" y1="300" x2="884" y2="300"/>
      <line x1="16" y1="500" x2="884" y2="500"/>
      <line x1="16" y1="700" x2="884" y2="700"/>
      <line x1="16" y1="900" x2="884" y2="900"/>
      <line x1="200" y1="60" x2="200" y2="1160"/>
      <line x1="450" y1="60" x2="450" y2="1160"/>
      <line x1="700" y1="60" x2="700" y2="1160"/>
    </g>

    <!-- Roads -->
    <g fill="#fff" stroke="#ddd" stroke-width="1">
      <rect x="16" y="380" width="868" height="60"/>
      <rect x="380" y="60" width="60" height="1100"/>
      <rect x="16" y="680" width="868" height="40" transform="rotate(-15 450 700)"/>
    </g>

    <!-- Location Markers -->
    <g>
      <!-- Marker 1 - Pizza -->
      <circle cx="250" cy="280" r="28" fill="#CE1126"/>
      <text x="250" y="290" font-family="SF Pro, Roboto" font-size="24" fill="#fff" text-anchor="middle">🍕</text>

      <!-- Marker 2 - Shopping -->
      <circle cx="580" cy="450" r="28" fill="#4CAF50"/>
      <text x="580" y="460" font-family="SF Pro, Roboto" font-size="24" fill="#fff" text-anchor="middle">🛒</text>

      <!-- Marker 3 - Cinema -->
      <circle cx="720" cy="320" r="28" fill="#003F87"/>
      <text x="720" y="330" font-family="SF Pro, Roboto" font-size="24" fill="#fff" text-anchor="middle">🎬</text>

      <!-- Marker 4 - Golf -->
      <circle cx="350" cy="580" r="28" fill="#FFD700"/>
      <text x="350" y="590" font-family="SF Pro, Roboto" font-size="24" fill="#333" text-anchor="middle">⛳</text>

      <!-- Marker 5 - Coffee -->
      <circle cx="650" cy="750" r="28" fill="#795548"/>
      <text x="650" y="760" font-family="SF Pro, Roboto" font-size="24" fill="#fff" text-anchor="middle">☕</text>

      <!-- Marker 6 - Gas -->
      <circle cx="180" cy="650" r="28" fill="#FF9800"/>
      <text x="180" y="660" font-family="SF Pro, Roboto" font-size="24" fill="#fff" text-anchor="middle">⛽</text>

      <!-- User Location -->
      <circle cx="450" cy="560" r="14" fill="#4285F4"/>
      <circle cx="450" cy="560" r="8" fill="#fff"/>
      <circle cx="450" cy="560" r="35" fill="#4285F4" opacity="0.2"/>
    </g>

    <!-- Search Bar -->
    <g transform="translate(40, 80)">
      <rect width="820" height="60" rx="30" fill="#fff" filter="url(#shadow4)"/>
      <text x="30" y="40" font-family="SF Pro, Roboto" font-size="20" fill="#999">🔍 Search merchants...</text>
      <circle cx="770" cy="30" r="22" fill="#003F87"/>
      <text x="770" y="38" font-family="SF Pro, Roboto" font-size="16" fill="#fff" text-anchor="middle">⚙</text>
    </g>

    <!-- Category Filters -->
    <g transform="translate(40, 160)">
      <rect x="0" y="0" width="90" height="40" rx="20" fill="#003F87"/>
      <text x="45" y="28" font-family="SF Pro, Roboto" font-size="14" fill="#fff" text-anchor="middle">All (47)</text>

      <rect x="100" y="0" width="90" height="40" rx="20" fill="#fff"/>
      <text x="145" y="28" font-family="SF Pro, Roboto" font-size="14" fill="#333" text-anchor="middle">Food</text>

      <rect x="200" y="0" width="100" height="40" rx="20" fill="#fff"/>
      <text x="250" y="28" font-family="SF Pro, Roboto" font-size="14" fill="#333" text-anchor="middle">Shopping</text>
    </g>

    <!-- Merchant Info Card -->
    <rect x="40" y="1000" width="820" height="140" rx="20" fill="#fff"/>
    <rect x="60" y="1020" width="100" height="100" rx="12" fill="#CE1126"/>
    <text x="110" y="1080" font-family="SF Pro, Roboto" font-size="40" fill="#fff" text-anchor="middle">🍕</text>

    <text x="180" y="1055" font-family="SF Pro Display, Roboto" font-size="22" font-weight="bold" fill="#1a1a1a">Joe's Pizza Palace</text>
    <text x="180" y="1085" font-family="SF Pro, Roboto" font-size="16" fill="#666">0.3 mi • Open until 10pm</text>
    <text x="180" y="1115" font-family="SF Pro, Roboto" font-size="16" fill="#4CAF50" font-weight="600">20% OFF any large pizza</text>

    <rect x="700" y="1040" width="140" height="60" rx="30" fill="#003F87"/>
    <text x="770" y="1080" font-family="SF Pro, Roboto" font-size="16" font-weight="600" fill="#fff" text-anchor="middle">Directions</text>

    <!-- Bottom Nav -->
    <rect x="16" y="1380" width="868" height="104" fill="#fff"/>
    <g transform="translate(16, 1380)" fill="#003F87">
      <g transform="translate(87, 52)" text-anchor="middle">
        <circle r="20" fill="#e8f0fe"/>
        <text y="42" font-family="SF Pro, Roboto" font-size="12" fill="#666">Home</text>
      </g>
      <g transform="translate(261, 52)" text-anchor="middle">
        <circle r="20" fill="#e8f0fe"/>
        <text y="42" font-family="SF Pro, Roboto" font-size="12" fill="#666">Offers</text>
      </g>
      <g transform="translate(434, 52)" text-anchor="middle">
        <circle r="20" fill="#e8f0fe"/>
        <text y="42" font-family="SF Pro, Roboto" font-size="12" fill="#666">Scan</text>
      </g>
      <g transform="translate(608, 52)" text-anchor="middle">
        <circle r="20" fill="#003F87"/>
        <text y="42" font-family="SF Pro, Roboto" font-size="12" font-weight="600" fill="#003F87">Map</text>
      </g>
      <g transform="translate(781, 52)" text-anchor="middle">
        <circle r="20" fill="#e8f0fe"/>
        <text y="42" font-family="SF Pro, Roboto" font-size="12" fill="#666">Profile</text>
      </g>
    </g>

    <rect x="360" y="1450" width="180" height="5" rx="2" fill="#1a1a1a"/>
  </g>

  <text x="540" y="1870" font-family="SF Pro, Roboto" font-size="26" fill="#FFD700" text-anchor="middle" font-weight="600">
    Merchants Within Walking Distance
  </text>
</svg>
