<?xml version="1.0" encoding="UTF-8"?>
<svg width="1080" height="1920" viewBox="0 0 1080 1920" xmlns="http://www.w3.org/2000/svg">
  <defs>
    <linearGradient id="bg5" x1="0%" y1="0%" x2="0%" y2="100%">
      <stop offset="0%" style="stop-color:#003F87"/>
      <stop offset="100%" style="stop-color:#001a3a"/>
    </linearGradient>
    <filter id="shadow5" x="-20%" y="-20%" width="140%" height="140%">
      <feDropShadow dx="0" dy="20" stdDeviation="40" flood-color="#000" flood-opacity="0.5"/>
    </filter>
  </defs>

  <rect width="1080" height="1920" fill="url(#bg5)"/>

  <!-- Headline -->
  <text x="540" y="140" font-family="SF Pro Display, Roboto, Arial" font-size="56" font-weight="bold" fill="#fff" text-anchor="middle">
    Track Your Savings
  </text>
  <text x="540" y="200" font-family="SF Pro, Roboto, Arial" font-size="28" fill="#fff" fill-opacity="0.8" text-anchor="middle">
    Manage your Camp Card subscription
  </text>

  <!-- Phone Frame -->
  <g transform="translate(90, 280)" filter="url(#shadow5)">
    <rect width="900" height="1500" rx="60" fill="#1a1a1a"/>
    <rect x="12" y="12" width="876" height="1476" rx="52" fill="#000"/>

    <!-- Screen -->
    <rect x="16" y="16" width="868" height="1468" rx="50" fill="#f5f5f5"/>
    <rect x="320" y="24" width="260" height="32" rx="16" fill="#1a1a1a"/>

    <!-- Header -->
    <rect x="16" y="60" width="868" height="280" fill="#003F87"/>

    <!-- Profile Section -->
    <g transform="translate(450, 160)" text-anchor="middle">
      <circle r="65" fill="#fff"/>
      <text y="12" font-family="SF Pro, Roboto" font-size="48" fill="#003F87">JD</text>
      <text y="100" font-family="SF Pro Display, Roboto" font-size="26" font-weight="bold" fill="#fff">John Doe</text>
      <text y="135" font-family="SF Pro, Roboto" font-size="16" fill="#fff" fill-opacity="0.8">Member since Jan 2024</text>
    </g>

    <!-- Subscription Status Card -->
    <rect x="40" y="300" width="820" height="140" rx="16" fill="#fff"/>
    <g transform="translate(80, 330)">
      <rect x="0" y="0" width="65" height="65" rx="32" fill="#4CAF50"/>
      <text x="32" y="45" font-family="SF Pro, Roboto" font-size="28" fill="#fff" text-anchor="middle">✓</text>
    </g>
    <text x="170" y="360" font-family="SF Pro Display, Roboto" font-size="22" font-weight="bold" fill="#1a1a1a">Active Subscription</text>
    <text x="170" y="395" font-family="SF Pro, Roboto" font-size="16" fill="#666">Valid until Dec 31, 2026</text>
    <rect x="600" y="345" width="220" height="50" rx="25" fill="#003F87"/>
    <text x="710" y="378" font-family="SF Pro, Roboto" font-size="16" font-weight="600" fill="#fff" text-anchor="middle">Manage</text>

    <!-- Stats Section -->
    <text x="70" y="495" font-family="SF Pro Display, Roboto" font-size="20" font-weight="bold" fill="#1a1a1a">Your Savings</text>

    <g transform="translate(40, 520)">
      <!-- Stat 1 -->
      <rect x="0" y="0" width="260" height="120" rx="12" fill="#fff"/>
      <text x="130" y="45" font-family="SF Pro Display, Roboto" font-size="38" font-weight="bold" fill="#4CAF50" text-anchor="middle">$127</text>
      <text x="130" y="75" font-family="SF Pro, Roboto" font-size="14" fill="#666" text-anchor="middle">Total Saved</text>
      <text x="130" y="100" font-family="SF Pro, Roboto" font-size="12" fill="#999" text-anchor="middle">This year</text>

      <!-- Stat 2 -->
      <rect x="280" y="0" width="260" height="120" rx="12" fill="#fff"/>
      <text x="410" y="45" font-family="SF Pro Display, Roboto" font-size="38" font-weight="bold" fill="#003F87" text-anchor="middle">23</text>
      <text x="410" y="75" font-family="SF Pro, Roboto" font-size="14" fill="#666" text-anchor="middle">Offers Redeemed</text>
      <text x="410" y="100" font-family="SF Pro, Roboto" font-size="12" fill="#999" text-anchor="middle">All time</text>

      <!-- Stat 3 -->
      <rect x="560" y="0" width="260" height="120" rx="12" fill="#fff"/>
      <text x="690" y="45" font-family="SF Pro Display, Roboto" font-size="38" font-weight="bold" fill="#FFD700" text-anchor="middle">12</text>
      <text x="690" y="75" font-family="SF Pro, Roboto" font-size="14" fill="#666" text-anchor="middle">Favorites</text>
      <text x="690" y="100" font-family="SF Pro, Roboto" font-size="12" fill="#999" text-anchor="middle">Merchants</text>
    </g>

    <!-- Menu Items -->
    <g transform="translate(40, 680)">
      <rect x="0" y="0" width="820" height="65" rx="10" fill="#fff"/>
      <text x="25" y="42" font-family="SF Pro, Roboto" font-size="32">📍</text>
      <text x="75" y="42" font-family="SF Pro, Roboto" font-size="18" fill="#1a1a1a">Saved Locations</text>
      <text x="780" y="42" font-family="SF Pro, Roboto" font-size="18" fill="#999">›</text>

      <rect x="0" y="80" width="820" height="65" rx="10" fill="#fff"/>
      <text x="25" y="122" font-family="SF Pro, Roboto" font-size="32">🔔</text>
      <text x="75" y="122" font-family="SF Pro, Roboto" font-size="18" fill="#1a1a1a">Notifications</text>
      <text x="780" y="122" font-family="SF Pro, Roboto" font-size="18" fill="#999">›</text>

      <rect x="0" y="160" width="820" height="65" rx="10" fill="#fff"/>
      <text x="25" y="202" font-family="SF Pro, Roboto" font-size="32">📜</text>
      <text x="75" y="202" font-family="SF Pro, Roboto" font-size="18" fill="#1a1a1a">Redemption History</text>
      <text x="780" y="202" font-family="SF Pro, Roboto" font-size="18" fill="#999">›</text>

      <rect x="0" y="240" width="820" height="65" rx="10" fill="#fff"/>
      <text x="25" y="282" font-family="SF Pro, Roboto" font-size="32">⚙️</text>
      <text x="75" y="282" font-family="SF Pro, Roboto" font-size="18" fill="#1a1a1a">Settings</text>
      <text x="780" y="282" font-family="SF Pro, Roboto" font-size="18" fill="#999">›</text>

      <rect x="0" y="320" width="820" height="65" rx="10" fill="#fff"/>
      <text x="25" y="362" font-family="SF Pro, Roboto" font-size="32">❓</text>
      <text x="75" y="362" font-family="SF Pro, Roboto" font-size="18" fill="#1a1a1a">Help &amp; Support</text>
      <text x="780" y="362" font-family="SF Pro, Roboto" font-size="18" fill="#999">›</text>
    </g>

    <!-- Scout Attribution -->
    <rect x="40" y="1110" width="820" height="95" rx="12" fill="#FFD700" fill-opacity="0.15"/>
    <text x="80" y="1150" font-family="SF Pro, Roboto" font-size="32">⚜️</text>
    <text x="130" y="1145" font-family="SF Pro, Roboto" font-size="16" fill="#1a1a1a">Supporting: <tspan font-weight="bold">Troop 123</tspan></text>
    <text x="130" y="1175" font-family="SF Pro, Roboto" font-size="14" fill="#666">Your purchases help fund Scout activities</text>

    <!-- Bottom Nav -->
    <rect x="16" y="1380" width="868" height="104" fill="#fff"/>
    <g transform="translate(16, 1380)" fill="#003F87">
      <g transform="translate(87, 52)" text-anchor="middle">
        <circle r="20" fill="#e8f0fe"/>
        <text y="42" font-family="SF Pro, Roboto" font-size="12" fill="#666">Home</text>
      </g>
      <g transform="translate(261, 52)" text-anchor="middle">
        <circle r="20" fill="#e8f0fe"/>
        <text y="42" font-family="SF Pro, Roboto" font-size="12" fill="#666">Offers</text>
      </g>
      <g transform="translate(434, 52)" text-anchor="middle">
        <circle r="20" fill="#e8f0fe"/>
        <text y="42" font-family="SF Pro, Roboto" font-size="12" fill="#666">Scan</text>
      </g>
      <g transform="translate(608, 52)" text-anchor="middle">
        <circle r="20" fill="#e8f0fe"/>
        <text y="42" font-family="SF Pro, Roboto" font-size="12" fill="#666">Map</text>
      </g>
      <g transform="translate(781, 52)" text-anchor="middle">
        <circle r="20" fill="#003F87"/>
        <text y="42" font-family="SF Pro, Roboto" font-size="12" font-weight="600" fill="#003F87">Profile</text>
      </g>
    </g>

    <rect x="360" y="1450" width="180" height="5" rx="2" fill="#1a1a1a"/>
  </g>

  <text x="540" y="1870" font-family="SF Pro, Roboto" font-size="26" fill="#FFD700" text-anchor="middle" font-weight="600">
    Your Savings Dashboard
  </text>
</svg>
