<?xml version="1.0" encoding="UTF-8"?>
<svg width="1284" height="2778" viewBox="0 0 1284 2778" xmlns="http://www.w3.org/2000/svg">
  <defs>
    <linearGradient id="bg2" x1="0%" y1="0%" x2="0%" y2="100%">
      <stop offset="0%" style="stop-color:#003F87"/>
      <stop offset="100%" style="stop-color:#001a3a"/>
    </linearGradient>
    <filter id="shadow2" x="-20%" y="-20%" width="140%" height="140%">
      <feDropShadow dx="0" dy="30" stdDeviation="50" flood-color="#000" flood-opacity="0.5"/>
    </filter>
    <filter id="card" x="-5%" y="-5%" width="110%" height="120%">
      <feDropShadow dx="0" dy="4" stdDeviation="8" flood-color="#000" flood-opacity="0.15"/>
    </filter>
  </defs>

  <rect width="1284" height="2778" fill="url(#bg2)"/>
  <circle cx="1100" cy="300" r="400" fill="#fff" fill-opacity="0.03"/>

  <!-- Headline -->
  <text x="642" y="180" font-family="SF Pro Display, Arial" font-size="72" font-weight="bold" fill="#fff" text-anchor="middle">
    Exclusive Discounts
  </text>
  <text x="642" y="260" font-family="SF Pro, Arial" font-size="36" fill="#fff" fill-opacity="0.8" text-anchor="middle">
    From local merchants you love
  </text>

  <!-- Phone Frame -->
  <g transform="translate(142, 380)" filter="url(#shadow2)">
    <rect width="1000" height="2000" rx="100" fill="#1a1a1a"/>
    <rect x="15" y="15" width="970" height="1970" rx="88" fill="#000"/>

    <!-- Screen -->
    <rect x="20" y="20" width="960" height="1960" rx="85" fill="#f5f5f5"/>
    <rect x="350" y="30" width="300" height="45" rx="22" fill="#1a1a1a"/>

    <!-- Header -->
    <rect x="20" y="90" width="960" height="100" fill="#003F87"/>
    <text x="500" y="155" font-family="SF Pro Display" font-size="32" font-weight="bold" fill="#fff" text-anchor="middle">Nearby Offers</text>

    <!-- Search Bar -->
    <rect x="50" y="210" width="900" height="60" rx="30" fill="#fff" filter="url(#card)"/>
    <text x="100" y="250" font-family="SF Pro" font-size="20" fill="#999">Search offers...</text>

    <!-- Category Pills -->
    <g transform="translate(50, 290)">
      <rect x="0" y="0" width="100" height="40" rx="20" fill="#003F87"/>
      <text x="50" y="27" font-family="SF Pro" font-size="16" fill="#fff" text-anchor="middle">All</text>
      <rect x="110" y="0" width="120" height="40" rx="20" fill="#e0e0e0"/>
      <text x="170" y="27" font-family="SF Pro" font-size="16" fill="#666" text-anchor="middle">Food</text>
      <rect x="240" y="0" width="140" height="40" rx="20" fill="#e0e0e0"/>
      <text x="310" y="27" font-family="SF Pro" font-size="16" fill="#666" text-anchor="middle">Shopping</text>
      <rect x="390" y="0" width="140" height="40" rx="20" fill="#e0e0e0"/>
      <text x="460" y="27" font-family="SF Pro" font-size="16" fill="#666" text-anchor="middle">Services</text>
    </g>

    <!-- Offer Cards -->
    <g transform="translate(50, 360)">
      <!-- Card 1 -->
      <rect x="0" y="0" width="900" height="180" rx="16" fill="#fff" filter="url(#card)"/>
      <rect x="20" y="20" width="100" height="100" rx="12" fill="#CE1126"/>
      <text x="70" y="80" font-family="SF Pro" font-size="36" font-weight="bold" fill="#fff" text-anchor="middle">20%</text>
      <text x="140" y="50" font-family="SF Pro Display" font-size="26" font-weight="bold" fill="#1a1a1a">Joe's Italian Kitchen</text>
      <text x="140" y="85" font-family="SF Pro" font-size="20" fill="#666">20% off any order over $15</text>
      <text x="140" y="115" font-family="SF Pro" font-size="16" fill="#999">0.5 miles away</text>
      <rect x="720" y="55" width="150" height="50" rx="25" fill="#003F87"/>
      <text x="795" y="88" font-family="SF Pro" font-size="18" font-weight="600" fill="#fff" text-anchor="middle">Redeem</text>

      <!-- Card 2 -->
      <rect x="0" y="200" width="900" height="180" rx="16" fill="#fff" filter="url(#card)"/>
      <rect x="20" y="220" width="100" height="100" rx="12" fill="#FFD700"/>
      <text x="70" y="275" font-family="SF Pro" font-size="22" font-weight="bold" fill="#1a1a1a" text-anchor="middle">BOGO</text>
      <text x="140" y="250" font-family="SF Pro Display" font-size="26" font-weight="bold" fill="#1a1a1a">Sunrise Coffee</text>
      <text x="140" y="285" font-family="SF Pro" font-size="20" fill="#666">Buy 1 Get 1 Free any drink</text>
      <text x="140" y="315" font-family="SF Pro" font-size="16" fill="#999">1.2 miles away</text>
      <rect x="720" y="255" width="150" height="50" rx="25" fill="#003F87"/>
      <text x="795" y="288" font-family="SF Pro" font-size="18" font-weight="600" fill="#fff" text-anchor="middle">Redeem</text>

      <!-- Card 3 -->
      <rect x="0" y="400" width="900" height="180" rx="16" fill="#fff" filter="url(#card)"/>
      <rect x="20" y="420" width="100" height="100" rx="12" fill="#003F87"/>
      <text x="70" y="465" font-family="SF Pro" font-size="24" font-weight="bold" fill="#fff" text-anchor="middle">$10</text>
      <text x="70" y="495" font-family="SF Pro" font-size="16" fill="#fff" text-anchor="middle">OFF</text>
      <text x="140" y="450" font-family="SF Pro Display" font-size="26" font-weight="bold" fill="#1a1a1a">Mike's Auto Service</text>
      <text x="140" y="485" font-family="SF Pro" font-size="20" fill="#666">$10 off oil change</text>
      <text x="140" y="515" font-family="SF Pro" font-size="16" fill="#999">2.0 miles away</text>
      <rect x="720" y="455" width="150" height="50" rx="25" fill="#003F87"/>
      <text x="795" y="488" font-family="SF Pro" font-size="18" font-weight="600" fill="#fff" text-anchor="middle">Redeem</text>

      <!-- Card 4 -->
      <rect x="0" y="600" width="900" height="180" rx="16" fill="#fff" filter="url(#card)"/>
      <rect x="20" y="620" width="100" height="100" rx="12" fill="#4CAF50"/>
      <text x="70" y="680" font-family="SF Pro" font-size="32" font-weight="bold" fill="#fff" text-anchor="middle">15%</text>
      <text x="140" y="650" font-family="SF Pro Display" font-size="26" font-weight="bold" fill="#1a1a1a">Green Garden Nursery</text>
      <text x="140" y="685" font-family="SF Pro" font-size="20" fill="#666">15% off plants & supplies</text>
      <text x="140" y="715" font-family="SF Pro" font-size="16" fill="#999">3.5 miles away</text>
      <rect x="720" y="655" width="150" height="50" rx="25" fill="#003F87"/>
      <text x="795" y="688" font-family="SF Pro" font-size="18" font-weight="600" fill="#fff" text-anchor="middle">Redeem</text>
    </g>

    <!-- Bottom Nav -->
    <rect x="20" y="1850" width="960" height="110" rx="0 0 85 85" fill="#fff"/>
    <g transform="translate(20, 1850)" fill="#003F87">
      <g transform="translate(96, 55)" text-anchor="middle">
        <circle r="22" fill="#e8f0fe"/>
        <text y="50" font-family="SF Pro" font-size="13" fill="#003F87">Home</text>
      </g>
      <g transform="translate(288, 55)" text-anchor="middle">
        <circle r="22" fill="#003F87"/>
        <text y="50" font-family="SF Pro" font-size="13" font-weight="600" fill="#003F87">Offers</text>
      </g>
      <g transform="translate(480, 55)" text-anchor="middle">
        <circle r="22" fill="#e8f0fe"/>
        <text y="50" font-family="SF Pro" font-size="13" fill="#666">Scan</text>
      </g>
      <g transform="translate(672, 55)" text-anchor="middle">
        <circle r="22" fill="#e8f0fe"/>
        <text y="50" font-family="SF Pro" font-size="13" fill="#666">Map</text>
      </g>
      <g transform="translate(864, 55)" text-anchor="middle">
        <circle r="22" fill="#e8f0fe"/>
        <text y="50" font-family="SF Pro" font-size="13" fill="#666">Profile</text>
      </g>
    </g>

    <rect x="380" y="1920" width="200" height="6" rx="3" fill="#1a1a1a"/>
  </g>

  <text x="642" y="2550" font-family="SF Pro" font-size="32" fill="#FFD700" text-anchor="middle" font-weight="600">
    Save at 100+ Local Merchants
  </text>
</svg>
