<?xml version="1.0" encoding="UTF-8"?>
<svg width="1284" height="2778" viewBox="0 0 1284 2778" xmlns="http://www.w3.org/2000/svg">
  <defs>
    <linearGradient id="bg4" x1="0%" y1="0%" x2="0%" y2="100%">
      <stop offset="0%" style="stop-color:#003F87"/>
      <stop offset="100%" style="stop-color:#001a3a"/>
    </linearGradient>
    <filter id="shadow4" x="-20%" y="-20%" width="140%" height="140%">
      <feDropShadow dx="0" dy="30" stdDeviation="50" flood-color="#000" flood-opacity="0.5"/>
    </filter>
  </defs>

  <rect width="1284" height="2778" fill="url(#bg4)"/>

  <!-- Headline -->
  <text x="642" y="180" font-family="SF Pro Display, Arial" font-size="72" font-weight="bold" fill="#fff" text-anchor="middle">
    Find Nearby Deals
  </text>
  <text x="642" y="260" font-family="SF Pro, Arial" font-size="36" fill="#fff" fill-opacity="0.8" text-anchor="middle">
    Discover merchants around you
  </text>

  <!-- Phone Frame -->
  <g transform="translate(142, 380)" filter="url(#shadow4)">
    <rect width="1000" height="2000" rx="100" fill="#1a1a1a"/>
    <rect x="15" y="15" width="970" height="1970" rx="88" fill="#000"/>

    <!-- Screen -->
    <rect x="20" y="20" width="960" height="1960" rx="85" fill="#e8e8e8"/>
    <rect x="350" y="30" width="300" height="45" rx="22" fill="#1a1a1a"/>

    <!-- Map background -->
    <rect x="20" y="90" width="960" height="1350" fill="#c8d7c5"/>

    <!-- Roads -->
    <rect x="20" y="400" width="960" height="80" fill="#fff"/>
    <rect x="400" y="90" width="80" height="1350" fill="#fff"/>
    <rect x="700" y="90" width="60" height="800" fill="#fff"/>
    <rect x="20" y="700" width="380" height="60" fill="#fff"/>
    <rect x="20" y="1000" width="960" height="70" fill="#fff"/>
    <rect x="200" y="200" width="50" height="500" fill="#f5f5f5"/>

    <!-- Map pins -->
    <g transform="translate(250, 300)">
      <ellipse cx="0" cy="50" rx="20" ry="8" fill="#000" fill-opacity="0.2"/>
      <path d="M0 0 C20 0 30 15 30 30 C30 50 0 70 0 70 C0 70 -30 50 -30 30 C-30 15 -20 0 0 0" fill="#CE1126"/>
      <circle cx="0" cy="25" r="12" fill="#fff"/>
    </g>

    <g transform="translate(550, 500)">
      <ellipse cx="0" cy="50" rx="20" ry="8" fill="#000" fill-opacity="0.2"/>
      <path d="M0 0 C20 0 30 15 30 30 C30 50 0 70 0 70 C0 70 -30 50 -30 30 C-30 15 -20 0 0 0" fill="#FFD700"/>
      <circle cx="0" cy="25" r="12" fill="#fff"/>
    </g>

    <g transform="translate(750, 350)">
      <ellipse cx="0" cy="50" rx="20" ry="8" fill="#000" fill-opacity="0.2"/>
      <path d="M0 0 C20 0 30 15 30 30 C30 50 0 70 0 70 C0 70 -30 50 -30 30 C-30 15 -20 0 0 0" fill="#003F87"/>
      <circle cx="0" cy="25" r="12" fill="#fff"/>
    </g>

    <g transform="translate(350, 800)">
      <ellipse cx="0" cy="50" rx="20" ry="8" fill="#000" fill-opacity="0.2"/>
      <path d="M0 0 C20 0 30 15 30 30 C30 50 0 70 0 70 C0 70 -30 50 -30 30 C-30 15 -20 0 0 0" fill="#4CAF50"/>
      <circle cx="0" cy="25" r="12" fill="#fff"/>
    </g>

    <g transform="translate(600, 900)">
      <ellipse cx="0" cy="50" rx="20" ry="8" fill="#000" fill-opacity="0.2"/>
      <path d="M0 0 C20 0 30 15 30 30 C30 50 0 70 0 70 C0 70 -30 50 -30 30 C-30 15 -20 0 0 0" fill="#9C27B0"/>
      <circle cx="0" cy="25" r="12" fill="#fff"/>
    </g>

    <!-- Current location -->
    <g transform="translate(500, 650)">
      <circle r="50" fill="#003F87" fill-opacity="0.15"/>
      <circle r="30" fill="#003F87" fill-opacity="0.3"/>
      <circle r="12" fill="#003F87"/>
      <circle r="5" fill="#fff"/>
    </g>

    <!-- Search bar -->
    <rect x="50" y="120" width="900" height="60" rx="30" fill="#fff" filter="url(#shadow4)"/>
    <text x="100" y="160" font-family="SF Pro" font-size="20" fill="#999">Search location or merchant...</text>

    <!-- Bottom card -->
    <rect x="20" y="1460" width="960" height="400" rx="30" fill="#fff"/>
    <text x="60" y="1520" font-family="SF Pro Display" font-size="28" font-weight="bold" fill="#1a1a1a">5 offers nearby</text>
    <text x="60" y="1560" font-family="SF Pro" font-size="20" fill="#666">Within 5 miles of your location</text>

    <!-- Mini cards -->
    <g transform="translate(60, 1590)">
      <rect x="0" y="0" width="180" height="200" rx="12" fill="#f5f5f5"/>
      <rect x="15" y="15" width="60" height="60" rx="8" fill="#CE1126"/>
      <text x="45" y="55" font-family="SF Pro" font-size="18" font-weight="bold" fill="#fff" text-anchor="middle">20%</text>
      <text x="90" y="110" font-family="SF Pro" font-size="14" font-weight="600" fill="#1a1a1a" text-anchor="middle">Joe's Pizza</text>
      <text x="90" y="135" font-family="SF Pro" font-size="12" fill="#666" text-anchor="middle">0.5 mi</text>

      <rect x="200" y="0" width="180" height="200" rx="12" fill="#f5f5f5"/>
      <rect x="215" y="15" width="60" height="60" rx="8" fill="#FFD700"/>
      <text x="245" y="52" font-family="SF Pro" font-size="14" font-weight="bold" fill="#1a1a1a" text-anchor="middle">BOGO</text>
      <text x="290" y="110" font-family="SF Pro" font-size="14" font-weight="600" fill="#1a1a1a" text-anchor="middle">Coffee</text>
      <text x="290" y="135" font-family="SF Pro" font-size="12" fill="#666" text-anchor="middle">1.2 mi</text>

      <rect x="400" y="0" width="180" height="200" rx="12" fill="#f5f5f5"/>
      <rect x="415" y="15" width="60" height="60" rx="8" fill="#003F87"/>
      <text x="445" y="52" font-family="SF Pro" font-size="14" font-weight="bold" fill="#fff" text-anchor="middle">$10</text>
      <text x="490" y="110" font-family="SF Pro" font-size="14" font-weight="600" fill="#1a1a1a" text-anchor="middle">Auto Shop</text>
      <text x="490" y="135" font-family="SF Pro" font-size="12" fill="#666" text-anchor="middle">2.0 mi</text>

      <rect x="600" y="0" width="180" height="200" rx="12" fill="#f5f5f5"/>
      <rect x="615" y="15" width="60" height="60" rx="8" fill="#4CAF50"/>
      <text x="645" y="52" font-family="SF Pro" font-size="14" font-weight="bold" fill="#fff" text-anchor="middle">15%</text>
      <text x="690" y="110" font-family="SF Pro" font-size="14" font-weight="600" fill="#1a1a1a" text-anchor="middle">Garden</text>
      <text x="690" y="135" font-family="SF Pro" font-size="12" fill="#666" text-anchor="middle">3.5 mi</text>
    </g>

    <rect x="380" y="1920" width="200" height="6" rx="3" fill="#1a1a1a"/>
  </g>

  <text x="642" y="2550" font-family="SF Pro" font-size="32" fill="#FFD700" text-anchor="middle" font-weight="600">
    Deals Wherever You Go
  </text>
</svg>
