<?xml version="1.0" encoding="UTF-8"?>
<svg width="1284" height="2778" viewBox="0 0 1284 2778" xmlns="http://www.w3.org/2000/svg">
  <defs>
    <linearGradient id="bg5" x1="0%" y1="0%" x2="0%" y2="100%">
      <stop offset="0%" style="stop-color:#003F87"/>
      <stop offset="100%" style="stop-color:#001a3a"/>
    </linearGradient>
    <filter id="shadow5" x="-20%" y="-20%" width="140%" height="140%">
      <feDropShadow dx="0" dy="30" stdDeviation="50" flood-color="#000" flood-opacity="0.5"/>
    </filter>
  </defs>

  <rect width="1284" height="2778" fill="url(#bg5)"/>

  <!-- Headline -->
  <text x="642" y="180" font-family="SF Pro Display, Arial" font-size="72" font-weight="bold" fill="#fff" text-anchor="middle">
    Track Your Savings
  </text>
  <text x="642" y="260" font-family="SF Pro, Arial" font-size="36" fill="#fff" fill-opacity="0.8" text-anchor="middle">
    Manage your Camp Card subscription
  </text>

  <!-- Phone Frame -->
  <g transform="translate(142, 380)" filter="url(#shadow5)">
    <rect width="1000" height="2000" rx="100" fill="#1a1a1a"/>
    <rect x="15" y="15" width="970" height="1970" rx="88" fill="#000"/>

    <!-- Screen -->
    <rect x="20" y="20" width="960" height="1960" rx="85" fill="#f5f5f5"/>
    <rect x="350" y="30" width="300" height="45" rx="22" fill="#1a1a1a"/>

    <!-- Header -->
    <rect x="20" y="90" width="960" height="350" fill="#003F87"/>

    <!-- Profile Section -->
    <g transform="translate(500, 200)" text-anchor="middle">
      <circle r="80" fill="#fff"/>
      <text y="15" font-family="SF Pro" font-size="60" fill="#003F87">JD</text>
      <text y="120" font-family="SF Pro Display" font-size="32" font-weight="bold" fill="#fff">John Doe</text>
      <text y="160" font-family="SF Pro" font-size="20" fill="#fff" fill-opacity="0.8">Member since Jan 2024</text>
    </g>

    <!-- Subscription Status Card -->
    <rect x="50" y="380" width="900" height="180" rx="20" fill="#fff"/>
    <g transform="translate(100, 420)">
      <rect x="0" y="0" width="80" height="80" rx="40" fill="#4CAF50"/>
      <text x="40" y="55" font-family="SF Pro" font-size="36" fill="#fff" text-anchor="middle">✓</text>
    </g>
    <text x="200" y="450" font-family="SF Pro Display" font-size="28" font-weight="bold" fill="#1a1a1a">Active Subscription</text>
    <text x="200" y="490" font-family="SF Pro" font-size="20" fill="#666">Valid until Dec 31, 2026</text>
    <rect x="650" y="430" width="250" height="60" rx="30" fill="#003F87"/>
    <text x="775" y="470" font-family="SF Pro" font-size="20" font-weight="600" fill="#fff" text-anchor="middle">Manage</text>

    <!-- Stats Section -->
    <text x="80" y="620" font-family="SF Pro Display" font-size="26" font-weight="bold" fill="#1a1a1a">Your Savings</text>

    <g transform="translate(50, 650)">
      <!-- Stat 1 -->
      <rect x="0" y="0" width="280" height="150" rx="16" fill="#fff"/>
      <text x="140" y="50" font-family="SF Pro Display" font-size="48" font-weight="bold" fill="#4CAF50" text-anchor="middle">$127</text>
      <text x="140" y="90" font-family="SF Pro" font-size="18" fill="#666" text-anchor="middle">Total Saved</text>
      <text x="140" y="120" font-family="SF Pro" font-size="14" fill="#999" text-anchor="middle">This year</text>

      <!-- Stat 2 -->
      <rect x="310" y="0" width="280" height="150" rx="16" fill="#fff"/>
      <text x="450" y="50" font-family="SF Pro Display" font-size="48" font-weight="bold" fill="#003F87" text-anchor="middle">23</text>
      <text x="450" y="90" font-family="SF Pro" font-size="18" fill="#666" text-anchor="middle">Offers Redeemed</text>
      <text x="450" y="120" font-family="SF Pro" font-size="14" fill="#999" text-anchor="middle">All time</text>

      <!-- Stat 3 -->
      <rect x="620" y="0" width="280" height="150" rx="16" fill="#fff"/>
      <text x="760" y="50" font-family="SF Pro Display" font-size="48" font-weight="bold" fill="#FFD700" text-anchor="middle">12</text>
      <text x="760" y="90" font-family="SF Pro" font-size="18" fill="#666" text-anchor="middle">Favorites</text>
      <text x="760" y="120" font-family="SF Pro" font-size="14" fill="#999" text-anchor="middle">Merchants</text>
    </g>

    <!-- Menu Items -->
    <g transform="translate(50, 850)">
      <rect x="0" y="0" width="900" height="80" rx="12" fill="#fff"/>
      <text x="30" y="50" font-family="SF Pro" font-size="40">📍</text>
      <text x="90" y="52" font-family="SF Pro" font-size="22" fill="#1a1a1a">Saved Locations</text>
      <text x="850" y="52" font-family="SF Pro" font-size="22" fill="#999">›</text>

      <rect x="0" y="100" width="900" height="80" rx="12" fill="#fff"/>
      <text x="30" y="150" font-family="SF Pro" font-size="40">🔔</text>
      <text x="90" y="152" font-family="SF Pro" font-size="22" fill="#1a1a1a">Notifications</text>
      <text x="850" y="152" font-family="SF Pro" font-size="22" fill="#999">›</text>

      <rect x="0" y="200" width="900" height="80" rx="12" fill="#fff"/>
      <text x="30" y="250" font-family="SF Pro" font-size="40">📜</text>
      <text x="90" y="252" font-family="SF Pro" font-size="22" fill="#1a1a1a">Redemption History</text>
      <text x="850" y="252" font-family="SF Pro" font-size="22" fill="#999">›</text>

      <rect x="0" y="300" width="900" height="80" rx="12" fill="#fff"/>
      <text x="30" y="350" font-family="SF Pro" font-size="40">⚙️</text>
      <text x="90" y="352" font-family="SF Pro" font-size="22" fill="#1a1a1a">Settings</text>
      <text x="850" y="352" font-family="SF Pro" font-size="22" fill="#999">›</text>

      <rect x="0" y="400" width="900" height="80" rx="12" fill="#fff"/>
      <text x="30" y="450" font-family="SF Pro" font-size="40">❓</text>
      <text x="90" y="452" font-family="SF Pro" font-size="22" fill="#1a1a1a">Help & Support</text>
      <text x="850" y="452" font-family="SF Pro" font-size="22" fill="#999">›</text>
    </g>

    <!-- Scout Attribution -->
    <rect x="50" y="1400" width="900" height="120" rx="16" fill="#FFD700" fill-opacity="0.15"/>
    <text x="100" y="1450" font-family="SF Pro" font-size="40">⚜️</text>
    <text x="160" y="1445" font-family="SF Pro" font-size="20" fill="#1a1a1a">Supporting: <tspan font-weight="bold">Troop 123</tspan></text>
    <text x="160" y="1480" font-family="SF Pro" font-size="16" fill="#666">Your purchases help fund Scout activities</text>

    <!-- Bottom Nav -->
    <rect x="20" y="1850" width="960" height="110" rx="0 0 85 85" fill="#fff"/>
    <g transform="translate(20, 1850)" fill="#003F87">
      <g transform="translate(96, 55)" text-anchor="middle">
        <circle r="22" fill="#e8f0fe"/>
        <text y="50" font-family="SF Pro" font-size="13" fill="#666">Home</text>
      </g>
      <g transform="translate(288, 55)" text-anchor="middle">
        <circle r="22" fill="#e8f0fe"/>
        <text y="50" font-family="SF Pro" font-size="13" fill="#666">Offers</text>
      </g>
      <g transform="translate(480, 55)" text-anchor="middle">
        <circle r="22" fill="#e8f0fe"/>
        <text y="50" font-family="SF Pro" font-size="13" fill="#666">Scan</text>
      </g>
      <g transform="translate(672, 55)" text-anchor="middle">
        <circle r="22" fill="#e8f0fe"/>
        <text y="50" font-family="SF Pro" font-size="13" fill="#666">Map</text>
      </g>
      <g transform="translate(864, 55)" text-anchor="middle">
        <circle r="22" fill="#003F87"/>
        <text y="50" font-family="SF Pro" font-size="13" font-weight="600" fill="#003F87">Profile</text>
      </g>
    </g>

    <rect x="380" y="1920" width="200" height="6" rx="3" fill="#1a1a1a"/>
  </g>

  <text x="642" y="2550" font-family="SF Pro" font-size="32" fill="#FFD700" text-anchor="middle" font-weight="600">
    Your Savings Dashboard
  </text>
</svg>
